<?xml version="1.0" standalone="no"?>
<!DOCTYPE svg PUBLIC "-//W3C//DTD SVG 20010904//EN"
 "http://www.w3.org/TR/2001/REC-SVG-20010904/DTD/svg10.dtd">
<svg version="1.0" xmlns="http://www.w3.org/2000/svg"
 width="193.000000pt" height="193.000000pt" viewBox="0 0 193.000000 193.000000"
 preserveAspectRatio="xMidYMid meet">
<metadata>
Created by potrace 1.11, written by Peter Selinger 2001-2013
</metadata>
<g transform="translate(0.000000,193.000000) scale(0.100000,-0.100000)"
fill="#000000" stroke="none">
<path d="M1460 1433 c-171 -54 -333 -173 -422 -311 -41 -62 -96 -176 -103
-213 -2 -9 -8 -32 -13 -50 -12 -47 -8 -165 8 -217 20 -64 71 -117 138 -142 47
-18 71 -21 137 -17 44 3 103 12 130 22 183 61 430 228 529 358 31 40 35 92 8
106 -15 8 -29 0 -74 -42 -102 -96 -197 -165 -323 -233 -195 -105 -344 -121
-395 -41 -20 31 -22 148 -4 205 8 26 16 52 17 57 22 101 162 272 278 340 121
71 216 81 156 17 -36 -39 -48 -68 -41 -97 7 -30 31 -45 73 -45 39 0 70 30 114
110 l36 65 -20 39 c-26 53 -56 84 -88 91 -56 12 -98 12 -141 -2z"/>
<path d="M400 1396 c-175 -51 -289 -151 -284 -248 5 -78 46 -142 124 -194 62
-41 81 -49 195 -84 132 -41 174 -60 186 -81 22 -43 -106 -130 -241 -165 -63
-16 -117 -16 -226 2 -39 6 -41 5 -58 -30 -24 -50 -14 -70 47 -97 202 -88 636
109 629 286 -4 96 -67 142 -294 215 -101 33 -135 48 -167 78 -57 52 -61 79
-17 124 56 57 131 82 253 83 117 0 133 -8 136 -68 2 -31 6 -37 24 -37 54 0 87
33 97 96 8 52 -47 111 -120 130 -73 19 -200 15 -284 -10z"/>
</g>
</svg>
